<svg id="Grupo_341" data-name="Grupo 341" xmlns="http://www.w3.org/2000/svg" width="499.876" height="461.95" viewBox="0 0 499.876 461.95">
  <defs>
    <style>
      .cls-1 {
        fill: #1e6be1;
      }

      .cls-2 {
        fill: #e5e5e5;
      }

      .cls-3 {
        fill: #6c63ff;
      }

      .cls-4 {
        fill: #cbcbcb;
      }

      .cls-5 {
        fill: #ffb7b7;
      }

      .cls-10, .cls-6 {
        fill: #2f2e41;
      }

      .cls-7 {
        fill: #1ee195;
      }

      .cls-8 {
        opacity: 0.1;
      }

      .cls-9 {
        fill: #f1f1f1;
      }

      .cls-10 {
        opacity: 0.17;
      }
    </style>
  </defs>
  <path id="Caminho_363" data-name="Caminho 363" class="cls-1" d="M854.665,612.641l-40.578-60.274s61.452,21.453,54.478,60.274Z" transform="translate(-399.253 -242.547)"/>
  <path id="Caminho_364" data-name="Caminho 364" class="cls-2" d="M320.2,594.875l-1.54-.03a357.267,357.267,0,0,1,5.468-51.056c6.661-36.109,17.738-59.823,32.922-70.484l.885,1.261C322.467,499.469,320.221,593.923,320.2,594.875Z" transform="translate(-285.418 -224.38)"/>
  <path id="Caminho_365" data-name="Caminho 365" class="cls-2" d="M345.2,614.836l-1.54-.03c.033-1.706,1-41.911,16.824-53.024l.885,1.261C346.181,573.707,345.21,614.426,345.2,614.836Z" transform="translate(-291.162 -244.71)"/>
  <circle id="Elipse_282" data-name="Elipse 282" class="cls-3" cx="7.702" cy="7.702" r="7.702" transform="translate(73.581 234.92)"/>
  <circle id="Elipse_283" data-name="Elipse 283" class="cls-3" cx="7.702" cy="7.702" r="7.702" transform="translate(69.766 301.16)"/>
  <path id="Caminho_366" data-name="Caminho 366" class="cls-2" d="M337.951,476.354a34.212,34.212,0,0,1-2.325,17.515,31.179,31.179,0,0,1-5.242-33.482A34.21,34.21,0,0,1,337.951,476.354Z" transform="translate(-287.501 -221.412)"/>
  <path id="Caminho_367" data-name="Caminho 367" class="cls-2" d="M368.422,506.973a34.213,34.213,0,0,1-17.653.762,31.18,31.18,0,0,1,32.057-11A34.211,34.211,0,0,1,368.422,506.973Z" transform="translate(-292.795 -229.577)"/>
  <path id="Caminho_368" data-name="Caminho 368" class="cls-2" d="M370.367,584.1a23.979,23.979,0,0,1-12.373.534,21.854,21.854,0,0,1,22.469-7.707A23.98,23.98,0,0,1,370.367,584.1Z" transform="translate(-294.455 -248.04)"/>
  <path id="Caminho_369" data-name="Caminho 369" class="cls-4" d="M774.606,632.162H276.27a.77.77,0,0,1,0-1.541H774.606a.77.77,0,0,1,0,1.541Z" transform="translate(-275.5 -260.527)"/>
  <path id="Caminho_370" data-name="Caminho 370" class="cls-5" d="M388.146,521.351l-6.3,16.4-66.258-16.5,9.3-24.206Z" transform="translate(-72.514 -114.208)"/>
  <path id="Caminho_371" data-name="Caminho 371" class="cls-6" d="M697.538,678.785,677.22,731.667l-.669-.257a22.052,22.052,0,0,1-12.676-28.491h0l12.41-32.3Z" transform="translate(-364.4 -269.718)"/>
  <path id="Caminho_372" data-name="Caminho 372" class="cls-2" d="M545.534,412.112l-28.874,2.7-1.432,85.912a16.172,16.172,0,0,0,17.217,14.67l18.307-1.261Z" transform="translate(-330.583 -210.319)"/>
  <path id="Caminho_373" data-name="Caminho 373" class="cls-7" d="M680.494,406.546l-19.757-.254-1.17,102.083h0A31.8,31.8,0,0,0,692.4,475.367Z" transform="translate(-363.749 -208.982)"/>
  <path id="Caminho_374" data-name="Caminho 374" class="cls-6" d="M535.98,581.693a62.856,62.856,0,0,1-2.032,8.749c-1,2.8-2.536,5.4-3.448,8.228-2.906,9.028,1.122,19.094,7.556,26.063a42.529,42.529,0,0,0,20.736,12.313c5.8,1.46,11.838,1.67,17.819,1.873,16.562.562,33.55,1.064,49.243-4.258a85.558,85.558,0,0,0,14.307-6.5,10.711,10.711,0,0,0,3.712-2.923c1.2-1.7,1.35-3.914,1.34-6-.035-7.021-1.459-14.006-1.121-21.019.187-3.885.914-7.766.556-11.638a21.471,21.471,0,0,0-16.409-18.495c-4.452-.956-9.069-.435-13.6,0a346.784,346.784,0,0,1-35.4,1.583c-12.076-.077-24.078-1.92-36.093-2.113-3.553-.057-3.482,1.039-4.613,4.478A83.761,83.761,0,0,0,535.98,581.693Z" transform="translate(-333.872 -246.035)"/>
  <path id="Caminho_375" data-name="Caminho 375" class="cls-6" d="M466.635,578.181a35.734,35.734,0,0,0-9.94-1.057,24.807,24.807,0,0,0-23.031,29.244,41.669,41.669,0,0,0,3.939,10.763c2.636,5.349,5.8,10.687,10.677,14.115a41.587,41.587,0,0,0,9.423,4.485l25.7,9.682c3.781,1.424,7.562,2.849,11.381,4.17A222.608,222.608,0,0,0,554.229,661.4c6.171.368,12.436.47,18.457-.935a6.008,6.008,0,0,0,3.78-2.042,6.472,6.472,0,0,0,.844-2.789l1.582-11.072a9.273,9.273,0,0,0-.134-4.667c-.724-1.861-2.54-3.031-4.272-4.026-16.9-9.7-36.626-15.059-50.848-28.378-3.348-3.136-6.15-8.106-10.218-10.236-4.613-2.415-10.046-3.794-14.814-6.02C488.181,586.37,477.932,580.779,466.635,578.181Z" transform="translate(-311.748 -248.23)"/>
  <path id="Caminho_376" data-name="Caminho 376" class="cls-8" d="M506.473,597.123c9.084,2.847,47.439,22.568,54.013,29.453-.881.318-30.779-16.438-31.676-16.707-8.155-2.447-16.355-4.911-24.1-8.493-1.558-.721-10.121-4.107-9.733-6.073C495.414,593.085,504.86,596.618,506.473,597.123Z" transform="translate(-325.927 -252.246)"/>
  <path id="Caminho_377" data-name="Caminho 377" class="cls-7" d="M566.344,374.278l-24.459,18.571s-25.809.807-24.937,17.306,11.2,94.613,11.2,94.613l2.241,26.877L572.9,543.758a139.092,139.092,0,0,0,70.465,1.51h0L638.315,518.3s20.456-122.46,8.133-127.851-20.026-3.851-20.026-3.851l-15.447-13.479Z" transform="translate(-330.974 -201.361)"/>
  <path id="Caminho_378" data-name="Caminho 378" class="cls-6" d="M645.379,315.735c0,24.109-22.293,20.462-49.792,20.462S545.8,339.844,545.8,315.735s10.889-66.844,49.792-66.844C635.83,248.891,645.379,291.626,645.379,315.735Z" transform="translate(-337.607 -172.816)"/>
  <circle id="Elipse_284" data-name="Elipse 284" class="cls-5" cx="33.505" cy="33.505" r="33.505" transform="translate(212.79 127.397) rotate(-45)"/>
  <path id="Caminho_379" data-name="Caminho 379" class="cls-6" d="M559.964,303.841h13.252l5.846-16.37,1.169,16.37h6.334l3.41-9.549.682,9.549h47.064a35.468,35.468,0,0,0-35.468-35.468h-6.821a35.468,35.468,0,0,0-35.469,35.469Z" transform="translate(-340.863 -177.292)"/>
  <rect id="Retângulo_1119" data-name="Retângulo 1119" class="cls-3" width="67.01" height="80.874" transform="translate(224.588 176.768)"/>
  <path id="Caminho_380" data-name="Caminho 380" class="cls-5" d="M296.381,520.351l6.3,16.4,66.258-16.5-9.3-24.206Z" transform="translate(-68.101 -113.979)"/>
  <path id="Caminho_381" data-name="Caminho 381" class="cls-6" d="M570.407,669.62l12.41,32.3h0a22.051,22.051,0,0,1-12.676,28.491l-.669.257-20.318-52.882Z" transform="translate(-338.379 -269.488)"/>
  <path id="Caminho_382" data-name="Caminho 382" class="cls-6" d="M710.711,569.939a46.258,46.258,0,0,1,16.3-1.113c4.356.48,8.845,1.692,12.026,4.707,3.871,3.67,5.115,9.346,5.219,14.679a45.862,45.862,0,0,1-9.968,29.289,26.578,26.578,0,0,1-5.7,5.486,37.515,37.515,0,0,1-7.415,3.573l-57.558,22.7c-15.142,5.973-30.338,11.962-46.131,15.9a3.6,3.6,0,0,1-4.8-1.675l-.037-.079a119.25,119.25,0,0,1-12.615-23.076,1.555,1.555,0,0,1,.687-2.452l40.711-23.391a41.165,41.165,0,0,0,8.286-5.709,20.573,20.573,0,0,0,4.254-5.923c.844-1.763.923-5.922,2-7.225,1.055-1.276,4.666-1.377,6.333-1.879a57.444,57.444,0,0,0,6.894-2.606c9.107-4.074,17.216-9.993,25.946-14.764A66.577,66.577,0,0,1,710.711,569.939Z" transform="translate(-349.987 -246.265)"/>
  <path id="Caminho_383" data-name="Caminho 383" class="cls-8" d="M694.376,591.7c-6.994,5.253-16.05,10.082-22.982,15.474-2.366,1.84-41.8,24.013-42.362,26.958,6.467,1.09,47.664-27.731,53.558-30.606s11.119-6.931,16.3-10.957c1.319-1.026,6.911-4.11,3.124-5.256C699.876,586.669,695.951,590.652,694.376,591.7Z" transform="translate(-356.733 -250.56)"/>
  <circle id="Elipse_285" data-name="Elipse 285" class="cls-1" cx="24.068" cy="24.068" r="24.068" transform="translate(439.29 90.285)"/>
  <circle id="Elipse_286" data-name="Elipse 286" class="cls-9" cx="16.883" cy="16.883" r="16.883" transform="translate(401.93 108.965)"/>
  <circle id="Elipse_287" data-name="Elipse 287" class="cls-9" cx="13.537" cy="13.537" r="13.537" transform="translate(95.999 104.644)"/>
  <circle id="Elipse_288" data-name="Elipse 288" class="cls-9" cx="9.496" cy="9.496" r="9.496" transform="translate(122.328 121.829)"/>
  <circle id="Elipse_289" data-name="Elipse 289" class="cls-9" cx="10.348" cy="10.348" r="10.348" transform="translate(252.802 0)"/>
  <path id="Caminho_384" data-name="Caminho 384" class="cls-10" d="M537.087,444.492l.925-7.14s34.505,2.519,29.114,10.991-18.485,9.243-18.485,9.243Z" transform="translate(-335.606 -216.119)"/>
  <path id="Caminho_385" data-name="Caminho 385" class="cls-5" d="M559.557,406.291a13.472,13.472,0,0,1,9.8,6.018h0a13.459,13.459,0,0,1-4.377,18.919,12.971,12.971,0,0,1-1.784.877l-21.209,64.874a10.775,10.775,0,1,1-19.376-9.433l22.555-64.154a13.444,13.444,0,0,1,14.389-17.1Z" transform="translate(-332.03 -208.963)"/>
  <path id="Caminho_386" data-name="Caminho 386" class="cls-2" d="M532.578,438.142s12.153,20.763,29.722,10.383l-17.027,65.16H530.927l-14.841-2.772,4.155-26.922Z" transform="translate(-330.781 -216.301)"/>
  <path id="Caminho_387" data-name="Caminho 387" class="cls-2" d="M647.154,449.387l-10.068-13.822s4.839-14.336,23.6-9.094C660.687,426.472,672.626,453.2,647.154,449.387Z" transform="translate(-358.583 -213.354)"/>
  <path id="Caminho_388" data-name="Caminho 388" class="cls-10" d="M647.154,449.387l-10.068-13.822s4.839-14.336,23.6-9.094C660.687,426.472,672.626,453.2,647.154,449.387Z" transform="translate(-358.583 -213.354)"/>
  <path id="Caminho_389" data-name="Caminho 389" class="cls-5" d="M647.893,393.488a13.371,13.371,0,0,1,7.189,15.9l22.555,64.154a10.775,10.775,0,0,1-19.376,9.433L637.053,418.1a12.981,12.981,0,0,1-1.784-.877,13.459,13.459,0,0,1-4.377-18.919h0a13.472,13.472,0,0,1,9.8-6.018A13.306,13.306,0,0,1,647.893,393.488Z" transform="translate(-356.657 -205.745)"/>
  <path id="Caminho_390" data-name="Caminho 390" class="cls-7" d="M637.087,435.909s16.61,10.079,23.6-9.094l23.406,61.629-6.955,12.164-1.006.084a25.723,25.723,0,0,1-22.016-9.309h0a51.1,51.1,0,0,1-10.675-22.7Z" transform="translate(-358.583 -213.698)"/>
</svg>
