<svg xmlns="http://www.w3.org/2000/svg" xmlns:xlink="http://www.w3.org/1999/xlink" width="1782.979" height="842.14" viewBox="0 0 1782.979 842.14">
  <defs>
    <style>
      .cls-1, .cls-20, .cls-21, .cls-9 {
        fill: #6c63ff;
      }

      .cls-1, .cls-11, .cls-17, .cls-6 {
        opacity: 0.1;
      }

      .cls-2 {
        fill: #65617d;
      }

      .cls-3 {
        fill: url(#linear-gradient);
      }

      .cls-4 {
        fill: #ee8e9e;
      }

      .cls-5 {
        fill: #dfe5ee;
      }

      .cls-14, .cls-6 {
        fill: #1ee195;
      }

      .cls-7 {
        fill: #d48a9b;
      }

      .cls-8 {
        fill: #efc6cd;
      }

      .cls-10, .cls-17 {
        fill: #fff;
      }

      .cls-12 {
        fill: #ffd037;
      }

      .cls-13 {
        fill: #9d9cb5;
      }

      .cls-15 {
        fill: #603556;
      }

      .cls-16 {
        fill: #5c5c8e;
      }

      .cls-18 {
        fill: #efc8c4;
      }

      .cls-19 {
        fill: #727a9c;
      }

      .cls-20 {
        opacity: 0;
      }

      .cls-21 {
        opacity: 0.01;
      }
    </style>
    <linearGradient id="linear-gradient" x1="0.5" y1="1" x2="0.5" gradientUnits="objectBoundingBox">
      <stop offset="0" stop-color="gray" stop-opacity="0.251"/>
      <stop offset="0.54" stop-color="gray" stop-opacity="0.122"/>
      <stop offset="1" stop-color="gray" stop-opacity="0.102"/>
    </linearGradient>
  </defs>
  <g id="Grupo_339" data-name="Grupo 339" transform="translate(-0.271 -115.539)">
    <path id="Caminho_286" data-name="Caminho 286" class="cls-1" d="M277.7,215.237h1.813a4.342,4.342,0,0,1-2.159-3.5h0c0-2.768,3.388-5.022,7.527-5.022h52.666c4.139,0,7.527,2.255,7.527,5.022h0c0,2.756-3.388,5.022-7.527,5.022h-1.754a4.354,4.354,0,0,1,2.147,3.5c0,2.386-2.457,4.342-5.75,4.879h15.162c4.127,0,7.515,2.255,7.515,5.022s-3.388,5.01-7.515,5.01H294.622c-4.127,0-7.515-2.255-7.515-5.01,0-2.386,2.457-4.342,5.75-4.879H277.7c-4.127,0-7.515-2.255-7.515-5.022S273.544,215.237,277.7,215.237Z" transform="translate(-46.538 -91.182)"/>
    <path id="Caminho_287" data-name="Caminho 287" class="cls-1" d="M756.215,255.307h1.765a4.354,4.354,0,0,1-2.159-3.507h0c0-2.756,3.388-5.01,7.527-5.01h52.666c4.139,0,7.527,2.254,7.527,5.01h0c0,2.768-3.388,5.022-7.527,5.022h-1.754a4.366,4.366,0,0,1,2.147,3.507c0,2.386-2.457,4.33-5.75,4.867h15.162c4.127,0,7.515,2.266,7.515,5.022s-3.388,5.022-7.515,5.022H773.167c-4.128,0-7.515-2.255-7.515-5.022,0-2.386,2.457-4.342,5.75-4.867H756.215c-4.128,0-7.515-2.267-7.515-5.022S752.112,255.307,756.215,255.307Z" transform="translate(11.217 -83.452)"/>
    <path id="Caminho_288" data-name="Caminho 288" class="cls-1" d="M209.965,426.779h1.766a4.366,4.366,0,0,1-2.147-3.507h0c0-2.756,3.376-5.022,7.515-5.022h52.666c4.139,0,7.527,2.267,7.527,5.022h0c0,2.768-3.388,5.022-7.527,5.022h-1.754a4.366,4.366,0,0,1,2.147,3.507c0,2.386-2.457,4.33-5.75,4.867h15.162c4.139,0,7.515,2.255,7.515,5.022s-3.376,5.022-7.515,5.022H226.892c-4.127,0-7.515-2.266-7.515-5.022,0-2.386,2.469-4.342,5.75-4.879H209.965c-4.127,0-7.515-2.255-7.515-5.01S205.838,426.779,209.965,426.779Z" transform="translate(-45.181 -50.378)"/>
    <path id="Caminho_289" data-name="Caminho 289" class="cls-2" d="M733.088,713.44q-4.425,3.507-8.851,7c-1.73,1.372-3.483,2.732-5.225,4.092-1.265.99-2.517,1.98-3.805,2.958-6.453,4.974-12.991,9.841-19.659,14.494-1.587,1.109-3.2,2.219-4.772,3.3a251.578,251.578,0,0,1-42.4,23.357l-.191.083V713.44Z" transform="translate(-0.923 6.562)"/>
    <path id="Caminho_290" data-name="Caminho 290" class="cls-3" d="M918.734,578.286l1.336-41.215c-.8-.62-1.61-1.193-2.386-1.766a219.706,219.706,0,0,0-2.1-36.753c-5.392-41.215-40.4-42.109-50.281-33.6a23.857,23.857,0,0,1-4.259,2.934c.895-5.881,2-11.774,2.8-17.6,4.318-31.4-2.386-66.719-26.745-87.01-10.2-8.481-22.665-13.694-33.866-20.792-20.065-12.657-35.918-31.349-56.209-43.672s-48.789-16.939-66.492-1.1c-6.859,6.131-11.285,14.637-18.323,20.554-13.122,11.022-33.58,11.75-45.032,24.061h0c-.573.62-1.121,1.253-1.646,1.921-9.543,12.239-6.931,29.6-3.889,44.781,3.662,18.275,2.147,32.924,17.822,38.173.06.728.107,1.455.191,2.171a77.431,77.431,0,0,0,34.069,55.732l-2.541.907c-6.776,2.386-12.871,4.7-16.772,6.287-14.315,5.833-44.447,13.432-44.447,13.432s-.716,8.589-.584,21.258c-10.044,10.915-26.8,30.1-31.731,41.465-7.157,16.581-47.6,64.071-58.368,71.24s-22.45,15.675-22.45,15.675-17.059,9.412-25.134,10.307c-5.595.62-22.9-2.7-22.9-2.7s-69.128-84.7-64.643-19.707,59.7,67.2,59.7,67.2l55.672-.895s30.085,4.032,43.553-7.157c11.5-9.543,71.1-61.9,90.242-85.65.441.489.883.966,1.348,1.432,0,0,7.623-9.853,8.529,0s-4.951,14.315-1.8,17.893,12.573,16.128,13.014,21.055-12.561,25.051,9.424,40.32c.346.239.716.465,1.121.692,3.925,8.935,16.4,17.679,16.4,17.679l67.339-.895L865.758,724.8s3.781-3.328,8.9-8.768c6.835,6.275,16.319,11.655,27.007,8.35,0,0,15.269-18.359,15.722-30.455,0,0-9.877-25.54-14.315-33.151s3.149-24.192,3.149-24.192,5.38-16.128,8.529-16.128.895-10.736.895-10.736a13.05,13.05,0,0,1-1.348-12.1C916.933,590.835,918.734,578.286,918.734,578.286Z" transform="translate(-57.846 -77.82)"/>
    <path id="Caminho_291" data-name="Caminho 291" class="cls-4" d="M788.915,542.305l-4.771,5.583h0l-19.277,22.45-25.182,1.527-40.308,2.481s-54.348-65.49-44.137-79.745c3.71-5.141,4.318-11.929,3.579-18.335-.1-.883-.227-1.765-.382-2.636a76.218,76.218,0,0,0-6.346-19.563l1.336-.608.859-.394,47.525-21.687,11.762-5.368a31.748,31.748,0,0,0,3.221,9.281c.227.453.477.907.74,1.336,16.211,26.84,68.2,9.865,68.2,9.865Z" transform="translate(-2.389 -48.882)"/>
    <path id="Caminho_292" data-name="Caminho 292" class="cls-4" d="M839.081,507.033c-.358,16.247-3.006,23.261-3.006,23.261l-67.268,10.247-2.517-17.464-9.961-68.961,9.352-9.352a24.967,24.967,0,0,0,21.388-5.344c9.794-8.47,44.543-7.575,49.887,33.4a226.774,226.774,0,0,1,2.123,34.212Z" transform="translate(12.216 -47.118)"/>
    <path id="Caminho_293" data-name="Caminho 293" class="cls-5" d="M818.474,666.259S833.612,648,834.066,635.972l-15.15-25.4-13.36-14.315L780.6,644.429S797.086,672.939,818.474,666.259Z" transform="translate(16.388 -16.041)"/>
    <path id="Caminho_294" data-name="Caminho 294" class="cls-6" d="M818.474,666.259S833.612,648,834.066,635.972l-15.15-25.4-13.36-14.315L780.6,644.429S797.086,672.939,818.474,666.259Z" transform="translate(16.388 -16.041)"/>
    <path id="Caminho_295" data-name="Caminho 295" class="cls-7" d="M830.156,729.584c-1.264.99-2.517,1.98-3.805,2.958-6.454,4.974-12.991,9.841-19.659,14.494-1.587,1.109-3.2,2.219-4.772,3.3H421.387L308.8,746.308l-90.541-.763L195.6,744.352,82.509,738.388A283.911,283.911,0,0,1,73.193,696.8c-.465-3.173-.883-6.358-1.193-9.543l123.548,6.847,22.665,1.276,203.126,11.333,22.725,1.264,292.665,16.343,22.522,1.265h.191Z" transform="translate(-70.345 1.512)"/>
    <path id="Caminho_296" data-name="Caminho 296" class="cls-8" d="M983,653c-24.824,7.157-48.909,16.378-71.574,29.441-1.8,1.038-3.579,2.1-5.38,3.185s-3.579,2.171-5.308,3.292-3.471,2.231-5.189,3.364L892.9,694.07l-2.588,1.766c-2.553,1.753-5.07,3.579-7.587,5.344l-.1.072q-2.487,1.789-4.951,3.579c-9.293,6.883-18.382,14.088-27.436,21.317q-2.863,2.291-5.738,4.569l-8.827,7c-1.73,1.372-3.483,2.732-5.225,4.091-1.264.99-2.517,1.98-3.805,2.958l-66.8-3.185h-.191l-22.522-1.05-292.8-13.873-22.725-1.085-203.126-9.651-22.665-1.085-122.4-5.762c-.465-3.173-.883-6.358-1.193-9.543q-.93-8.2-1.384-16.462l124.968-44.137,22.665-8.028,20.589-7.277,37.517,1.956,86.712,4.45h0l58.356,3.066,22.725,1.193,14.518.763h0l3.471.191h0l122.176,6.382h0l1.288.083h0l54.515,2.839h.978l5.452.274h0l18.585.978L688.593,647h0l7.659.406h0l1.443.083,10.831.561h0l3.09.155h0l10.342.549h0l4.116.227h.99l9.674.513,14.983.787h.072l4.652.239h.5l2.78.155,6.823.358h0l5.964.31h.06l6.692.346h.107l5.07.274h0l3.889.2,13.8.728h0l2.481.131h.859l1.193.071h0l4.044.215h0l1.813.1h0l14.076.728h1.288l20.78-.179h.143l79.005-.644h7.814l25.432-.2h3.793Z" transform="translate(-70.568 -10.762)"/>
    <path id="Caminho_297" data-name="Caminho 297" class="cls-9" d="M388.824,651.78l7.348,39.091,199.786-3.006s15.03,4.342,14.7-7.682c0,0,30.407-28.737,184.422,4.676L735.945,638.42,574.308,647.1l-187.428-5.01Z" transform="translate(-41.096 -7.909)"/>
    <path id="Caminho_298" data-name="Caminho 298" class="cls-10" d="M391.59,642.129,398.6,684.56s171.777-5.01,198.784-.334l-20.41-38.757S473.112,635.783,391.59,642.129Z" transform="translate(-34.54 -7.609)"/>
    <path id="Caminho_299" data-name="Caminho 299" class="cls-11" d="M391.59,642.129,398.6,684.56s171.777-5.01,198.784-.334l-20.41-38.757S473.112,635.783,391.59,642.129Z" transform="translate(-34.54 -7.609)"/>
    <path id="Caminho_300" data-name="Caminho 300" class="cls-10" d="M393.74,641.974l6.919,39.461s169.594-4.652,196.315-.31l-20.124-36.037S474.237,636.069,393.74,641.974Z" transform="translate(-34.235 -7.61)"/>
    <path id="Caminho_301" data-name="Caminho 301" class="cls-11" d="M396.35,642.977l6.74,36.908s165.872-4.354,192.056-.286l-19.683-33.723S475.093,637.406,396.35,642.977Z" transform="translate(-33.832 -7.396)"/>
    <path id="Caminho_302" data-name="Caminho 302" class="cls-10" d="M397.47,641.843l6.776,36.98s165.872-4.354,192.056-.286l-19.731-33.759S476.213,636.32,397.47,641.843Z" transform="translate(-33.707 -7.61)"/>
    <path id="Caminho_303" data-name="Caminho 303" class="cls-9" d="M302.95,557.41s8.684,11.345-4,28.486-23.154,31.6-18.919,42.288c0,0,19.086-31.826,34.713-32.208S320.092,576.544,302.95,557.41Z" transform="translate(-44.954 -23.535)"/>
    <path id="Caminho_304" data-name="Caminho 304" class="cls-11" d="M302.871,557.41a13.794,13.794,0,0,1,1.777,3.579c15.2,17.894,23.3,34.594,8.684,34.952-13.611.382-29.93,24.717-33.842,30.872q.2.692.465,1.4S299.042,596.382,314.669,596,320.013,576.544,302.871,557.41Z" transform="translate(-44.897 -23.535)"/>
    <path id="Caminho_305" data-name="Caminho 305" class="cls-12" d="M312.944,569.954c0,3.984-.453,7.229-1,7.229s-1-3.245-1-7.229.561-2.123,1.109-2.123S312.944,565.958,312.944,569.954Z" transform="translate(-40.48 -21.61)"/>
    <path id="Caminho_306" data-name="Caminho 306" class="cls-12" d="M318.366,573.975c-3.507,1.921-6.561,3.078-6.823,2.589s2.386-2.386,5.869-4.342,2.123-.525,2.386,0S321.873,572.066,318.366,573.975Z" transform="translate(-40.497 -20.871)"/>
    <path id="Caminho_307" data-name="Caminho 307" class="cls-9" d="M263.81,557.41s-8.684,11.345,4.008,28.486,23.142,31.6,18.919,42.288c0,0-19.146-31.826-34.725-32.208S246.668,576.544,263.81,557.41Z" transform="translate(-37.103 -23.535)"/>
    <path id="Caminho_308" data-name="Caminho 308" class="cls-11" d="M263.81,557.41a14.315,14.315,0,0,0-1.777,3.579c-15.2,17.894-23.3,34.594-8.684,34.952,13.611.382,29.942,24.717,33.854,30.872a14.314,14.314,0,0,1-.465,1.4S267.592,596.382,252.012,596,246.668,576.544,263.81,557.41Z" transform="translate(-37.103 -23.535)"/>
    <path id="Caminho_309" data-name="Caminho 309" class="cls-12" d="M247.13,569.954c0,3.984.453,7.229,1,7.229s1-3.245,1-7.229-.561-2.123-1.109-2.123S247.13,565.958,247.13,569.954Z" transform="translate(-36.563 -21.61)"/>
    <path id="Caminho_310" data-name="Caminho 310" class="cls-12" d="M242.834,573.975c3.507,1.921,6.573,3.078,6.835,2.589s-2.386-2.386-5.869-4.342-2.123-.525-2.386,0S239.327,572.066,242.834,573.975Z" transform="translate(-37.802 -20.871)"/>
    <path id="Caminho_311" data-name="Caminho 311" class="cls-2" d="M334.1,604.766l-.429,3.579-.608,5-.25,2.088-.608,5.01-.263,2.087-.62,5.01-6.943,56.925c-.62,5.082-8.923,9.042-18.943,9.042H269.388c-10.02,0-18.311-3.96-18.931-9.042L243.5,627.539l-.608-5.01-.251-2.087-.62-5.01-.25-2.088-.608-5-.441-3.579c-.346-2.875,4.139-5.3,9.818-5.3h73.793C330,599.47,334.5,601.892,334.1,604.766Z" transform="translate(-50.187 -15.422)"/>
    <path id="Caminho_312" data-name="Caminho 312" class="cls-13" d="M263.195,551.59l-.608,5.01H171.258l-.608-5.01Z" transform="translate(20.309 41.297)"/>
    <path id="Caminho_313" data-name="Caminho 313" class="cls-13" d="M262.2,557.54l-.608,5.01h-89.6l-.62-5.01Z" transform="translate(20.413 42.445)"/>
    <path id="Caminho_314" data-name="Caminho 314" class="cls-13" d="M261.185,563.49l-.608,5H172.708l-.608-5Z" transform="translate(20.52 43.593)"/>
    <path id="Caminho_315" data-name="Caminho 315" class="cls-4" d="M414.9,601.373s-23.166-22.271-22.271,6.68S414.9,601.373,414.9,601.373Z" transform="translate(-30.594 -16.633)"/>
    <path id="Caminho_316" data-name="Caminho 316" class="cls-4" d="M626.629,571.727c-.513,2.243-3.006,5.964-6.895,10.629-20.088,24.192-77.24,74.473-88.441,83.8-13.36,11.142-43.207,7.158-43.207,7.158l-55.231.895s-54.79-2.231-59.251-66.8,64.142,19.6,64.142,19.6,17.178,3.293,22.725,2.672c8.016-.883,24.943-10.235,24.943-10.235s11.583-8.469,22.271-15.591S558.466,549.5,565.6,533.018c4.521-10.462,19.086-27.568,29.142-38.662,5.773-6.382,10.056-10.736,10.056-10.736S629.742,557.913,626.629,571.727Z" transform="translate(-37.737 -37.769)"/>
    <path id="Caminho_317" data-name="Caminho 317" class="cls-11" d="M590.836,571.735c-.513,2.243-3.006,5.964-6.9,10.629-20.279-20.649-24.514-61.852-24.991-88.048,5.774-6.382,10.056-10.736,10.056-10.736S593.95,557.921,590.836,571.735Z" transform="translate(-10.181 -37.777)"/>
    <path id="Caminho_318" data-name="Caminho 318" class="cls-11" d="M784.132,543.513h0l-19.265,22.45-25.182,1.527-40.308,2.481s-54.348-65.49-44.137-79.745c3.71-5.141,4.318-11.929,3.579-18.335-.1-.883-.227-1.766-.382-2.636a76.217,76.217,0,0,0-6.346-19.563l1.336-.609.859-.394a85.528,85.528,0,0,1,4.366,18.263c.131.847.25,1.73.37,2.636.418,3.221.8,6.8,1.193,10.736,3.1,36.049,25.778,49.612,36.013,53.931a103.927,103.927,0,0,1,9.639,4.664,51.427,51.427,0,0,0,32.327,5.845c25.266-3.316,45.867-21.675,45.867-21.675l.107,18.072Z" transform="translate(-2.204 -44.507)"/>
    <path id="Caminho_319" data-name="Caminho 319" class="cls-14" d="M802.5,684.509s-165.705-.453-187.547-15.591-8.9-35.19-9.352-40.093-9.794-17.369-12.907-20.947,2.672-8.016,1.777-17.81-8.458,0-8.458,0c-31.194-31.636-24.514-111.81-24.514-111.81s29.822-7.563,44.137-13.372c3.877-1.575,9.913-3.817,16.7-6.239l2.517-.907c17.5-6.263,38.3-13.337,38.3-13.337s4-2.827,8.016,5.631c1.837,3.889,3.686,10.151,5.165,20.16.131.847.251,1.73.37,2.636.418,3.221.8,6.8,1.193,10.736,3.1,36.049,25.778,49.613,36.013,53.931a103.79,103.79,0,0,1,9.639,4.664,51.426,51.426,0,0,0,32.328,5.845c25.265-3.316,45.867-21.675,45.867-21.675l.108,18.072.31,54.3Z" transform="translate(-16.889 -45.421)"/>
    <path id="Caminho_320" data-name="Caminho 320" class="cls-4" d="M786.633,587.6l-2.672,16.927S718.029,621,692.2,625.907s-81.522-1.336-85.531,9.352,16.927,25.4,16.927,25.4l66.8-.895,126.065,9.806s48.109-42.324,32.518-71.729S786.633,587.6,786.633,587.6Z" transform="translate(-12.118 -18.896)"/>
    <path id="Caminho_321" data-name="Caminho 321" class="cls-11" d="M647.641,474.58s-30.3,24.943-24.5,36.98S647.641,474.58,647.641,474.58Z" transform="translate(-2.115 -39.513)"/>
    <path id="Caminho_322" data-name="Caminho 322" class="cls-11" d="M616.884,512.29s-30.741,53.012-28.952,57.02,10.247,18.263,9.794,7.575S616.884,512.29,616.884,512.29Z" transform="translate(-6.513 -32.239)"/>
    <path id="Caminho_323" data-name="Caminho 323" class="cls-11" d="M625.189,520.14s-7.157,32.96-14.255,46.773S625.189,520.14,625.189,520.14Z" transform="translate(-3.435 -30.724)"/>
    <path id="Caminho_324" data-name="Caminho 324" class="cls-11" d="M725.263,436.657a77.062,77.062,0,0,1-58.571,39.628h-.143a76.931,76.931,0,0,1-54.229-14.2c17.893-6.466,40.821-14.243,40.821-14.243s4-2.827,8.016,5.63L721.3,426.04A31.886,31.886,0,0,0,725.263,436.657Z" transform="translate(-6.206 -48.876)"/>
    <path id="Caminho_325" data-name="Caminho 325" class="cls-4" d="M739.8,414.213a76.716,76.716,0,0,1-10.14,38.244,77.619,77.619,0,0,1-11.487,15.293,76.738,76.738,0,0,1-46.714,23.094h-.155a75.237,75.237,0,0,1-8.565.489,77.062,77.062,0,0,1-76.572-68.379,74.835,74.835,0,0,1-.489-8.694,77.061,77.061,0,0,1,154.122,0Z" transform="translate(-10.789 -66.013)"/>
    <path id="Caminho_326" data-name="Caminho 326" class="cls-11" d="M757.566,530.083l7.157-10.736s39.2-46.773,77.538-16.927l-1.336,40.988s-1.79,12.466-4.461,19.086a13.039,13.039,0,0,0,1.336,12.036s2.231,10.736-.883,10.736-8.47,16.033-8.47,16.033-7.575,16.486-3.113,24.061,14.255,32.96,14.255,32.96S824,648.967,819.537,633.376c0,0-37.862-29.4-67.267-10.736Z" transform="translate(11.423 -36.063)"/>
    <path id="Caminho_327" data-name="Caminho 327" class="cls-11" d="M837.471,496.742c-.358,16.247-3.006,23.262-3.006,23.262L767.2,530.25l-2.517-17.464C773.484,503.6,805.5,474.4,837.471,496.742Z" transform="translate(13.644 -36.826)"/>
    <path id="Caminho_328" data-name="Caminho 328" class="cls-14" d="M757.566,528.083l7.157-10.736s39.2-46.774,77.538-16.927l-1.336,40.988s-1.79,12.466-4.461,19.086a13.038,13.038,0,0,0,1.336,12.036s2.231,10.736-.883,10.736-8.47,16.033-8.47,16.033-7.575,16.486-3.113,24.061,14.255,32.96,14.255,32.96S824,646.967,819.537,631.376c0,0-37.862-29.4-67.267-10.736Z" transform="translate(11.423 -36.449)"/>
    <path id="Caminho_329" data-name="Caminho 329" class="cls-11" d="M819.688,496.61s-64.583,39.652-61.47,74.425C758.218,571.035,794.3,507.3,819.688,496.61Z" transform="translate(13.305 -35.263)"/>
    <path id="Caminho_330" data-name="Caminho 330" class="cls-11" d="M796.951,565.037l.31,54.3c-12.215.548-23.727-1.038-32.828-8.947-6.334-5.511-10.02-13.122-11.929-21.353a75.647,75.647,0,0,1-1.551-20.2,1.1,1.1,0,0,1,0-.2c.751-14.995,4.2-29.989,2.386-44.889S742.5,493.13,727.751,489.992c-2.911-.632-6.179-.859-8.255-2.994-2.29-2.386-2.183-6.1-1.932-9.4l.429-5.571c.107-1.431.155-2.851.155-4.271a54.671,54.671,0,0,0-44.137-53.609l-.477-.084c-4.151-.835-8.47-1.658-12.621-.7-7.9,1.825-13,9.483-20.279,13.122-13.957,6.967-37.23-.656-51.843-3.054-.954-.155-1.861-.334-2.732-.537a74.9,74.9,0,0,1-.489-8.7A77.061,77.061,0,1,1,729.553,452.44c.227.453.477.907.74,1.336,16.211,26.84,68.2,9.865,68.2,9.865l3.125,95.778Z" transform="translate(-13.138 -66.019)"/>
    <path id="Caminho_331" data-name="Caminho 331" class="cls-15" d="M646.66,434.081c7.229-3.65,12.335-11.309,20.279-13.122,4.139-.954,8.458-.131,12.633.692l.477.1a54.719,54.719,0,0,1,43.934,57.891l-.429,5.571c-.262,3.293-.37,7.026,1.944,9.388,2.064,2.135,5.332,2.386,8.243,2.982,14.744,3.149,23.774,18.788,25.588,33.771s-1.694,30.025-2.386,45.08,2.076,31.671,13.456,41.56c17.893,15.508,45.091,6.68,68.77,5.261-10.474,0-18.323-10.808-18.9-21.257s4.08-20.4,8.529-29.822,8.911-19.563,7.921-29.989c-1.36-14.315-12.645-25.778-16.963-39.556-5.034-16.033-.179-33.246,2.1-49.911,4.283-31.206-2.386-66.337-26.542-86.509-10.116-8.434-22.486-13.623-33.6-20.685-19.921-12.633-35.632-31.158-55.768-43.445s-48.408-16.844-65.979-1.1c-6.8,6.1-11.189,14.553-18.18,20.434-13.659,11.511-35.369,11.726-46.32,25.85-9.424,12.156-6.871,29.417-3.853,44.507,4.02,20.124,1.754,35.787,23.262,39.365C609.43,433.437,632.691,441.06,646.66,434.081Z" transform="translate(-17.216 -74.942)"/>
    <path id="Caminho_332" data-name="Caminho 332" class="cls-11" d="M823.9,604.851c-17.237,2.111-34.32,3.2-46.869-7.682-11.38-9.889-14.184-26.494-13.456-41.56s4.211-30.121,2.386-45.091-10.843-30.61-25.587-33.759c-2.911-.62-6.167-.847-8.243-2.982-2.3-2.386-2.207-6.108-1.944-9.4l.429-5.571a54.706,54.706,0,0,0-43.934-57.879l-.477-.1c-4.175-.823-8.494-1.646-12.633-.692-7.9,1.825-13,9.543-20.279,13.122-13.969,6.979-37.218-.644-51.855-3.042-21.472-3.519-19.229-19.206-23.261-39.366-2.255-11.261-4.247-23.739-1.193-34.4a18.745,18.745,0,0,0-1.646,1.92c-9.424,12.156-6.871,29.417-3.853,44.507,4.02,20.124,1.753,35.787,23.261,39.366,14.625,2.386,37.886,10.02,51.855,3.042,7.229-3.65,12.335-11.309,20.279-13.122,4.139-.954,8.458-.131,12.633.692l.477.1a54.718,54.718,0,0,1,43.934,57.891l-.429,5.571c-.263,3.292-.37,7.026,1.944,9.388,2.064,2.135,5.332,2.386,8.243,2.982,14.744,3.149,23.775,18.788,25.588,33.771s-1.682,30.025-2.386,45.08,2.076,31.671,13.456,41.561c17.894,15.508,45.091,6.68,68.77,5.261C832.682,614.49,827.278,610.41,823.9,604.851Z" transform="translate(-17.233 -66.157)"/>
    <path id="Caminho_333" data-name="Caminho 333" class="cls-16" d="M378.557,599.319,452.1,571.882a7,7,0,0,1,9.006,4.1h0a7,7,0,0,1-4.1,9.006L383.46,612.428l-15.77-1.575Z" transform="translate(-34.938 -20.829)"/>
    <path id="Caminho_334" data-name="Caminho 334" class="cls-17" d="M458.895,573.565h0a7,7,0,0,1-4.115,9.006L381.189,610.1l-11.833-1.193-1.706,1.813,15.77,1.575,73.542-27.437a7,7,0,0,0,4.1-9.007h0a7,7,0,0,0-2.863-3.5,8.123,8.123,0,0,1,.692,1.2Z" transform="translate(-34.942 -20.651)"/>
    <path id="Caminho_335" data-name="Caminho 335" class="cls-18" d="M308.127,539.52l4.891,13.11-12.931-1.3-2.827-.286,3.865-4.1Z" transform="translate(36.858 38.969)"/>
    <path id="Caminho_336" data-name="Caminho 336" class="cls-19" d="M371.549,601a3.122,3.122,0,0,1,.764.823,1.194,1.194,0,0,1,0,1.276,2.54,2.54,0,0,1-.7.513,2.385,2.385,0,0,0-1.05,1.766l-2.839-.274Z" transform="translate(-33.403 -15.127)"/>
    <path id="Caminho_337" data-name="Caminho 337" class="cls-10" d="M570.59,671.911s63.7-13.373,170.584,3.579L699.3,644.761,623.125,629.17,569.23,643.485Z" transform="translate(-13.324 -9.693)"/>
    <path id="Caminho_338" data-name="Caminho 338" class="cls-11" d="M570.59,671.911s63.7-13.373,170.584,3.579L699.3,644.761,623.125,629.17,569.23,643.485Z" transform="translate(-13.324 -9.693)"/>
    <path id="Caminho_339" data-name="Caminho 339" class="cls-10" d="M567.4,685.777s32.077-86.771,196.828.274L705.093,648s-141.656-39.139-158.023,5.964Z" transform="translate(-17.477 -9.1)"/>
    <path id="Caminho_340" data-name="Caminho 340" class="cls-11" d="M567.411,686.736s32.077-92.772,196.828,1.67l-59.132-41.274S563.4,600.323,547,649.315Z" transform="translate(-17.488 -10.119)"/>
    <path id="Caminho_341" data-name="Caminho 341" class="cls-10" d="M567.4,686.829s32.077-94.143,196.828.3l-59.132-41.274S563.437,600.38,547.07,649.432Z" transform="translate(-17.477 -10.177)"/>
    <path id="Caminho_342" data-name="Caminho 342" class="cls-11" d="M567.4,687.472s32.077-104.629,196.828,1.61l-59.179-46.439S563.4,594.927,547.03,649.991Z" transform="translate(-17.483 -10.795)"/>
    <path id="Caminho_343" data-name="Caminho 343" class="cls-10" d="M567.4,687.628s32.077-105.905,196.828.334l-59.179-46.439S563.4,593.807,547.03,648.871Z" transform="translate(-17.483 -11.011)"/>
    <path id="Caminho_344" data-name="Caminho 344" class="cls-1" d="M981.491,668.71s-39.544,42.36-3.948,62.937c0,0,4.652,5.607,11.3,2.672,0,0-2.243-1.992,2.255-5.833a26.678,26.678,0,0,0,4.234-4.652,13.12,13.12,0,0,0,2.458-7.945h0s5.177-16.808-11.273-38.626c0,0-1.491-7.3-2.756-8.1l-3.006,10.176s7.551,1.92,10.39,7.67c0,0-9.949-7.813-10.915-6.179-.191.334-1.348,5.476-1.348,5.476S992,689.693,996.1,698.711c0,0-10.6-10.891-17.679-10.462l-1.288,7.849s14.041,2.911,19.086,13c0,0-11.475-11.011-19.277-11.261l-.227,7.885s13.635,3.1,17.8,11.523c0,0-14.541-11.368-17.726-9.71,0,0,.227,7.265,1.193,9.161,0,0,9.734,2.386,11.714,7.563,0,0-10.522-6.573-11.428-5.571,0,0,2.827,9.376,6.764,13.373,0,0-6.251-5.475-8.207-12.859,0,0-2.648,4.616-1.98,9.149,0,0-3.9-4.318,1.324-11.428,0,0-1.908-7.4-1.432-8.565,0,0-6.143,6.287-7.718,11.929,0,0-1.193-7.062,7.706-13.969v-7.945s-8.565,7.885-10.33,12.764c0,0-.119-7.4,10.51-14.756l1.193-7.718s-7.9,6.227-11.034,11.237c0,0,1.36-6.9,11.452-13.432l1.4-5.058s-5.678,4.652-7.158,6.132-2.04,1.193-2.04,1.193a25.05,25.05,0,0,1,9.782-9.472S982.147,668.984,981.491,668.71Z" transform="translate(30.118 -2.066)"/>
    <path id="Caminho_350" data-name="Caminho 350" class="cls-1" d="M981.491,668.71s-39.544,42.36-3.948,62.937c0,0,4.652,5.607,11.3,2.672,0,0-2.243-1.992,2.255-5.833a26.678,26.678,0,0,0,4.234-4.652,13.12,13.12,0,0,0,2.458-7.945h0s5.177-16.808-11.273-38.626c0,0-1.491-7.3-2.756-8.1l-3.006,10.176s7.551,1.92,10.39,7.67c0,0-9.949-7.813-10.915-6.179-.191.334-1.348,5.476-1.348,5.476S992,689.693,996.1,698.711c0,0-10.6-10.891-17.679-10.462l-1.288,7.849s14.041,2.911,19.086,13c0,0-11.475-11.011-19.277-11.261l-.227,7.885s13.635,3.1,17.8,11.523c0,0-14.541-11.368-17.726-9.71,0,0,.227,7.265,1.193,9.161,0,0,9.734,2.386,11.714,7.563,0,0-10.522-6.573-11.428-5.571,0,0,2.827,9.376,6.764,13.373,0,0-6.251-5.475-8.207-12.859,0,0-2.648,4.616-1.98,9.149,0,0-3.9-4.318,1.324-11.428,0,0-1.908-7.4-1.432-8.565,0,0-6.143,6.287-7.718,11.929,0,0-1.193-7.062,7.706-13.969v-7.945s-8.565,7.885-10.33,12.764c0,0-.119-7.4,10.51-14.756l1.193-7.718s-7.9,6.227-11.034,11.237c0,0,1.36-6.9,11.452-13.432l1.4-5.058s-5.678,4.652-7.158,6.132-2.04,1.193-2.04,1.193a25.05,25.05,0,0,1,9.782-9.472S982.147,668.984,981.491,668.71Z" transform="translate(155.226 189.28)"/>
    <path id="Caminho_353" data-name="Caminho 353" class="cls-20" d="M981.491,668.71s-39.544,42.36-3.948,62.937c0,0,4.652,5.607,11.3,2.672,0,0-2.243-1.992,2.255-5.833a26.678,26.678,0,0,0,4.234-4.652,13.12,13.12,0,0,0,2.458-7.945h0s5.177-16.808-11.273-38.626c0,0-1.491-7.3-2.756-8.1l-3.006,10.176s7.551,1.92,10.39,7.67c0,0-9.949-7.813-10.915-6.179-.191.334-1.348,5.476-1.348,5.476S992,689.693,996.1,698.711c0,0-10.6-10.891-17.679-10.462l-1.288,7.849s14.041,2.911,19.086,13c0,0-11.475-11.011-19.277-11.261l-.227,7.885s13.635,3.1,17.8,11.523c0,0-14.541-11.368-17.726-9.71,0,0,.227,7.265,1.193,9.161,0,0,9.734,2.386,11.714,7.563,0,0-10.522-6.573-11.428-5.571,0,0,2.827,9.376,6.764,13.373,0,0-6.251-5.475-8.207-12.859,0,0-2.648,4.616-1.98,9.149,0,0-3.9-4.318,1.324-11.428,0,0-1.908-7.4-1.432-8.565,0,0-6.143,6.287-7.718,11.929,0,0-1.193-7.062,7.706-13.969v-7.945s-8.565,7.885-10.33,12.764c0,0-.119-7.4,10.51-14.756l1.193-7.718s-7.9,6.227-11.034,11.237c0,0,1.36-6.9,11.452-13.432l1.4-5.058s-5.678,4.652-7.158,6.132-2.04,1.193-2.04,1.193a25.05,25.05,0,0,1,9.782-9.472S982.147,668.984,981.491,668.71Z" transform="translate(155.226 189.28)"/>
    <path id="Caminho_354" data-name="Caminho 354" class="cls-1" d="M981.491,668.71s-39.544,42.36-3.948,62.937c0,0,4.652,5.607,11.3,2.672,0,0-2.243-1.992,2.255-5.833a26.678,26.678,0,0,0,4.234-4.652,13.12,13.12,0,0,0,2.458-7.945h0s5.177-16.808-11.273-38.626c0,0-1.491-7.3-2.756-8.1l-3.006,10.176s7.551,1.92,10.39,7.67c0,0-9.949-7.813-10.915-6.179-.191.334-1.348,5.476-1.348,5.476S992,689.693,996.1,698.711c0,0-10.6-10.891-17.679-10.462l-1.288,7.849s14.041,2.911,19.086,13c0,0-11.475-11.011-19.277-11.261l-.227,7.885s13.635,3.1,17.8,11.523c0,0-14.541-11.368-17.726-9.71,0,0,.227,7.265,1.193,9.161,0,0,9.734,2.386,11.714,7.563,0,0-10.522-6.573-11.428-5.571,0,0,2.827,9.376,6.764,13.373,0,0-6.251-5.475-8.207-12.859,0,0-2.648,4.616-1.98,9.149,0,0-3.9-4.318,1.324-11.428,0,0-1.908-7.4-1.432-8.565,0,0-6.143,6.287-7.718,11.929,0,0-1.193-7.062,7.706-13.969v-7.945s-8.565,7.885-10.33,12.764c0,0-.119-7.4,10.51-14.756l1.193-7.718s-7.9,6.227-11.034,11.237c0,0,1.36-6.9,11.452-13.432l1.4-5.058s-5.678,4.652-7.158,6.132-2.04,1.193-2.04,1.193a25.05,25.05,0,0,1,9.782-9.472S982.147,668.984,981.491,668.71Z" transform="translate(633.121 222.509)"/>
    <path id="Caminho_355" data-name="Caminho 355" class="cls-1" d="M981.491,668.71s-39.544,42.36-3.948,62.937c0,0,4.652,5.607,11.3,2.672,0,0-2.243-1.992,2.255-5.833a26.678,26.678,0,0,0,4.234-4.652,13.12,13.12,0,0,0,2.458-7.945h0s5.177-16.808-11.273-38.626c0,0-1.491-7.3-2.756-8.1l-3.006,10.176s7.551,1.92,10.39,7.67c0,0-9.949-7.813-10.915-6.179-.191.334-1.348,5.476-1.348,5.476S992,689.693,996.1,698.711c0,0-10.6-10.891-17.679-10.462l-1.288,7.849s14.041,2.911,19.086,13c0,0-11.475-11.011-19.277-11.261l-.227,7.885s13.635,3.1,17.8,11.523c0,0-14.541-11.368-17.726-9.71,0,0,.227,7.265,1.193,9.161,0,0,9.734,2.386,11.714,7.563,0,0-10.522-6.573-11.428-5.571,0,0,2.827,9.376,6.764,13.373,0,0-6.251-5.475-8.207-12.859,0,0-2.648,4.616-1.98,9.149,0,0-3.9-4.318,1.324-11.428,0,0-1.908-7.4-1.432-8.565,0,0-6.143,6.287-7.718,11.929,0,0-1.193-7.062,7.706-13.969v-7.945s-8.565,7.885-10.33,12.764c0,0-.119-7.4,10.51-14.756l1.193-7.718s-7.9,6.227-11.034,11.237c0,0,1.36-6.9,11.452-13.432l1.4-5.058s-5.678,4.652-7.158,6.132-2.04,1.193-2.04,1.193a25.05,25.05,0,0,1,9.782-9.472S982.147,668.984,981.491,668.71Z" transform="translate(784.692 -543.381)"/>
    <path id="Caminho_356" data-name="Caminho 356" class="cls-1" d="M981.491,668.71s-39.544,42.36-3.948,62.937c0,0,4.652,5.607,11.3,2.672,0,0-2.243-1.992,2.255-5.833a26.678,26.678,0,0,0,4.234-4.652,13.12,13.12,0,0,0,2.458-7.945h0s5.177-16.808-11.273-38.626c0,0-1.491-7.3-2.756-8.1l-3.006,10.176s7.551,1.92,10.39,7.67c0,0-9.949-7.813-10.915-6.179-.191.334-1.348,5.476-1.348,5.476S992,689.693,996.1,698.711c0,0-10.6-10.891-17.679-10.462l-1.288,7.849s14.041,2.911,19.086,13c0,0-11.475-11.011-19.277-11.261l-.227,7.885s13.635,3.1,17.8,11.523c0,0-14.541-11.368-17.726-9.71,0,0,.227,7.265,1.193,9.161,0,0,9.734,2.386,11.714,7.563,0,0-10.522-6.573-11.428-5.571,0,0,2.827,9.376,6.764,13.373,0,0-6.251-5.475-8.207-12.859,0,0-2.648,4.616-1.98,9.149,0,0-3.9-4.318,1.324-11.428,0,0-1.908-7.4-1.432-8.565,0,0-6.143,6.287-7.718,11.929,0,0-1.193-7.062,7.706-13.969v-7.945s-8.565,7.885-10.33,12.764c0,0-.119-7.4,10.51-14.756l1.193-7.718s-7.9,6.227-11.034,11.237c0,0,1.36-6.9,11.452-13.432l1.4-5.058s-5.678,4.652-7.158,6.132-2.04,1.193-2.04,1.193a25.05,25.05,0,0,1,9.782-9.472S982.147,668.984,981.491,668.71Z" transform="translate(372.775 222.509)"/>
    <path id="Caminho_357" data-name="Caminho 357" class="cls-1" d="M18.806,0s-39.544,42.36-3.949,62.937c0,0,4.652,5.607,11.3,2.672,0,0-2.243-1.992,2.255-5.833a26.682,26.682,0,0,0,4.234-4.653A13.119,13.119,0,0,0,35.1,47.179h0S40.278,30.371,23.828,8.553c0,0-1.491-7.3-2.756-8.1L18.067,10.629s7.551,1.92,10.39,7.67c0,0-9.949-7.813-10.915-6.179-.191.334-1.348,5.476-1.348,5.476S29.316,20.983,33.419,30c0,0-10.6-10.891-17.679-10.462l-1.288,7.849s14.04,2.911,19.086,13c0,0-11.475-11.011-19.277-11.261l-.227,7.885s13.635,3.1,17.8,11.523c0,0-14.541-11.368-17.726-9.71,0,0,.227,7.265,1.193,9.161,0,0,9.734,2.386,11.714,7.563,0,0-10.522-6.573-11.428-5.571,0,0,2.827,9.376,6.764,13.373,0,0-6.251-5.475-8.207-12.859,0,0-2.648,4.616-1.98,9.149,0,0-3.9-4.318,1.324-11.428,0,0-1.908-7.4-1.432-8.565,0,0-6.143,6.286-7.718,11.929,0,0-1.193-7.062,7.706-13.969V29.667S3.477,37.552,1.712,42.431c0,0-.119-7.4,10.51-14.756l1.192-7.718S5.517,26.184,2.38,31.194c0,0,1.36-6.9,11.452-13.432l1.4-5.058S9.55,17.357,8.07,18.836s-2.04,1.193-2.04,1.193a25.05,25.05,0,0,1,9.782-9.472S19.462.274,18.806,0Z" transform="translate(1434.748 532.016) rotate(40)"/>
    <path id="Caminho_391" data-name="Caminho 391" class="cls-1" d="M18.806,0s-39.544,42.36-3.949,62.937c0,0,4.652,5.607,11.3,2.672,0,0-2.243-1.992,2.255-5.833a26.682,26.682,0,0,0,4.234-4.653A13.119,13.119,0,0,0,35.1,47.179h0S40.278,30.371,23.828,8.553c0,0-1.491-7.3-2.756-8.1L18.067,10.629s7.551,1.92,10.39,7.67c0,0-9.949-7.813-10.915-6.179-.191.334-1.348,5.476-1.348,5.476S29.316,20.983,33.419,30c0,0-10.6-10.891-17.679-10.462l-1.288,7.849s14.04,2.911,19.086,13c0,0-11.475-11.011-19.277-11.261l-.227,7.885s13.635,3.1,17.8,11.523c0,0-14.541-11.368-17.726-9.71,0,0,.227,7.265,1.193,9.161,0,0,9.734,2.386,11.714,7.563,0,0-10.522-6.573-11.428-5.571,0,0,2.827,9.376,6.764,13.373,0,0-6.251-5.475-8.207-12.859,0,0-2.648,4.616-1.98,9.149,0,0-3.9-4.318,1.324-11.428,0,0-1.908-7.4-1.432-8.565,0,0-6.143,6.286-7.718,11.929,0,0-1.193-7.062,7.706-13.969V29.667S3.477,37.552,1.712,42.431c0,0-.119-7.4,10.51-14.756l1.192-7.718S5.517,26.184,2.38,31.194c0,0,1.36-6.9,11.452-13.432l1.4-5.058S9.55,17.357,8.07,18.836s-2.04,1.193-2.04,1.193a25.05,25.05,0,0,1,9.782-9.472S19.462.274,18.806,0Z" transform="translate(1307.98 696.118) rotate(40)"/>
    <path id="Caminho_393" data-name="Caminho 393" class="cls-1" d="M18.806,0s-39.544,42.36-3.949,62.937c0,0,4.652,5.607,11.3,2.672,0,0-2.243-1.992,2.255-5.833a26.682,26.682,0,0,0,4.234-4.653A13.119,13.119,0,0,0,35.1,47.179h0S40.278,30.371,23.828,8.553c0,0-1.491-7.3-2.756-8.1L18.067,10.629s7.551,1.92,10.39,7.67c0,0-9.949-7.813-10.915-6.179-.191.334-1.348,5.476-1.348,5.476S29.316,20.983,33.419,30c0,0-10.6-10.891-17.679-10.462l-1.288,7.849s14.04,2.911,19.086,13c0,0-11.475-11.011-19.277-11.261l-.227,7.885s13.635,3.1,17.8,11.523c0,0-14.541-11.368-17.726-9.71,0,0,.227,7.265,1.193,9.161,0,0,9.734,2.386,11.714,7.563,0,0-10.522-6.573-11.428-5.571,0,0,2.827,9.376,6.764,13.373,0,0-6.251-5.475-8.207-12.859,0,0-2.648,4.616-1.98,9.149,0,0-3.9-4.318,1.324-11.428,0,0-1.908-7.4-1.432-8.565,0,0-6.143,6.286-7.718,11.929,0,0-1.193-7.062,7.706-13.969V29.667S3.477,37.552,1.712,42.431c0,0-.119-7.4,10.51-14.756l1.192-7.718S5.517,26.184,2.38,31.194c0,0,1.36-6.9,11.452-13.432l1.4-5.058S9.55,17.357,8.07,18.836s-2.04,1.193-2.04,1.193a25.05,25.05,0,0,1,9.782-9.472S19.462.274,18.806,0Z" transform="translate(1674.398 337.217) rotate(40)"/>
    <path id="Caminho_397" data-name="Caminho 397" class="cls-1" d="M18.806,0s-39.544,42.36-3.949,62.937c0,0,4.652,5.607,11.3,2.672,0,0-2.243-1.992,2.255-5.833a26.682,26.682,0,0,0,4.234-4.653A13.119,13.119,0,0,0,35.1,47.179h0S40.278,30.371,23.828,8.553c0,0-1.491-7.3-2.756-8.1L18.067,10.629s7.551,1.92,10.39,7.67c0,0-9.949-7.813-10.915-6.179-.191.334-1.348,5.476-1.348,5.476S29.316,20.983,33.419,30c0,0-10.6-10.891-17.679-10.462l-1.288,7.849s14.04,2.911,19.086,13c0,0-11.475-11.011-19.277-11.261l-.227,7.885s13.635,3.1,17.8,11.523c0,0-14.541-11.368-17.726-9.71,0,0,.227,7.265,1.193,9.161,0,0,9.734,2.386,11.714,7.563,0,0-10.522-6.573-11.428-5.571,0,0,2.827,9.376,6.764,13.373,0,0-6.251-5.475-8.207-12.859,0,0-2.648,4.616-1.98,9.149,0,0-3.9-4.318,1.324-11.428,0,0-1.908-7.4-1.432-8.565,0,0-6.143,6.286-7.718,11.929,0,0-1.193-7.062,7.706-13.969V29.667S3.477,37.552,1.712,42.431c0,0-.119-7.4,10.51-14.756l1.192-7.718S5.517,26.184,2.38,31.194c0,0,1.36-6.9,11.452-13.432l1.4-5.058S9.55,17.357,8.07,18.836s-2.04,1.193-2.04,1.193a25.05,25.05,0,0,1,9.782-9.472S19.462.274,18.806,0Z" transform="translate(1193.284 434.984) rotate(106)"/>
    <path id="Caminho_395" data-name="Caminho 395" class="cls-1" d="M18.806,0s-39.544,42.36-3.949,62.937c0,0,4.652,5.607,11.3,2.672,0,0-2.243-1.992,2.255-5.833a26.682,26.682,0,0,0,4.234-4.653A13.119,13.119,0,0,0,35.1,47.179h0S40.278,30.371,23.828,8.553c0,0-1.491-7.3-2.756-8.1L18.067,10.629s7.551,1.92,10.39,7.67c0,0-9.949-7.813-10.915-6.179-.191.334-1.348,5.476-1.348,5.476S29.316,20.983,33.419,30c0,0-10.6-10.891-17.679-10.462l-1.288,7.849s14.04,2.911,19.086,13c0,0-11.475-11.011-19.277-11.261l-.227,7.885s13.635,3.1,17.8,11.523c0,0-14.541-11.368-17.726-9.71,0,0,.227,7.265,1.193,9.161,0,0,9.734,2.386,11.714,7.563,0,0-10.522-6.573-11.428-5.571,0,0,2.827,9.376,6.764,13.373,0,0-6.251-5.475-8.207-12.859,0,0-2.648,4.616-1.98,9.149,0,0-3.9-4.318,1.324-11.428,0,0-1.908-7.4-1.432-8.565,0,0-6.143,6.286-7.718,11.929,0,0-1.193-7.062,7.706-13.969V29.667S3.477,37.552,1.712,42.431c0,0-.119-7.4,10.51-14.756l1.192-7.718S5.517,26.184,2.38,31.194c0,0,1.36-6.9,11.452-13.432l1.4-5.058S9.55,17.357,8.07,18.836s-2.04,1.193-2.04,1.193a25.05,25.05,0,0,1,9.782-9.472S19.462.274,18.806,0Z" transform="translate(1674.398 337.217) rotate(40)"/>
    <path id="Caminho_398" data-name="Caminho 398" class="cls-1" d="M18.806,0s-39.544,42.36-3.949,62.937c0,0,4.652,5.607,11.3,2.672,0,0-2.243-1.992,2.255-5.833a26.682,26.682,0,0,0,4.234-4.653A13.119,13.119,0,0,0,35.1,47.179h0S40.278,30.371,23.828,8.553c0,0-1.491-7.3-2.756-8.1L18.067,10.629s7.551,1.92,10.39,7.67c0,0-9.949-7.813-10.915-6.179-.191.334-1.348,5.476-1.348,5.476S29.316,20.983,33.419,30c0,0-10.6-10.891-17.679-10.462l-1.288,7.849s14.04,2.911,19.086,13c0,0-11.475-11.011-19.277-11.261l-.227,7.885s13.635,3.1,17.8,11.523c0,0-14.541-11.368-17.726-9.71,0,0,.227,7.265,1.193,9.161,0,0,9.734,2.386,11.714,7.563,0,0-10.522-6.573-11.428-5.571,0,0,2.827,9.376,6.764,13.373,0,0-6.251-5.475-8.207-12.859,0,0-2.648,4.616-1.98,9.149,0,0-3.9-4.318,1.324-11.428,0,0-1.908-7.4-1.432-8.565,0,0-6.143,6.286-7.718,11.929,0,0-1.193-7.062,7.706-13.969V29.667S3.477,37.552,1.712,42.431c0,0-.119-7.4,10.51-14.756l1.192-7.718S5.517,26.184,2.38,31.194c0,0,1.36-6.9,11.452-13.432l1.4-5.058S9.55,17.357,8.07,18.836s-2.04,1.193-2.04,1.193a25.05,25.05,0,0,1,9.782-9.472S19.462.274,18.806,0Z" transform="translate(1193.284 434.984) rotate(106)"/>
    <path id="Caminho_392" data-name="Caminho 392" class="cls-20" d="M18.806,0s-39.544,42.36-3.949,62.937c0,0,4.652,5.607,11.3,2.672,0,0-2.243-1.992,2.255-5.833a26.682,26.682,0,0,0,4.234-4.653A13.119,13.119,0,0,0,35.1,47.179h0S40.278,30.371,23.828,8.553c0,0-1.491-7.3-2.756-8.1L18.067,10.629s7.551,1.92,10.39,7.67c0,0-9.949-7.813-10.915-6.179-.191.334-1.348,5.476-1.348,5.476S29.316,20.983,33.419,30c0,0-10.6-10.891-17.679-10.462l-1.288,7.849s14.04,2.911,19.086,13c0,0-11.475-11.011-19.277-11.261l-.227,7.885s13.635,3.1,17.8,11.523c0,0-14.541-11.368-17.726-9.71,0,0,.227,7.265,1.193,9.161,0,0,9.734,2.386,11.714,7.563,0,0-10.522-6.573-11.428-5.571,0,0,2.827,9.376,6.764,13.373,0,0-6.251-5.475-8.207-12.859,0,0-2.648,4.616-1.98,9.149,0,0-3.9-4.318,1.324-11.428,0,0-1.908-7.4-1.432-8.565,0,0-6.143,6.286-7.718,11.929,0,0-1.193-7.062,7.706-13.969V29.667S3.477,37.552,1.712,42.431c0,0-.119-7.4,10.51-14.756l1.192-7.718S5.517,26.184,2.38,31.194c0,0,1.36-6.9,11.452-13.432l1.4-5.058S9.55,17.357,8.07,18.836s-2.04,1.193-2.04,1.193a25.05,25.05,0,0,1,9.782-9.472S19.462.274,18.806,0Z" transform="translate(1307.98 696.118) rotate(40)"/>
    <path id="Caminho_394" data-name="Caminho 394" class="cls-1" d="M18.806,0s-39.544,42.36-3.949,62.937c0,0,4.652,5.607,11.3,2.672,0,0-2.243-1.992,2.255-5.833a26.682,26.682,0,0,0,4.234-4.653A13.119,13.119,0,0,0,35.1,47.179h0S40.278,30.371,23.828,8.553c0,0-1.491-7.3-2.756-8.1L18.067,10.629s7.551,1.92,10.39,7.67c0,0-9.949-7.813-10.915-6.179-.191.334-1.348,5.476-1.348,5.476S29.316,20.983,33.419,30c0,0-10.6-10.891-17.679-10.462l-1.288,7.849s14.04,2.911,19.086,13c0,0-11.475-11.011-19.277-11.261l-.227,7.885s13.635,3.1,17.8,11.523c0,0-14.541-11.368-17.726-9.71,0,0,.227,7.265,1.193,9.161,0,0,9.734,2.386,11.714,7.563,0,0-10.522-6.573-11.428-5.571,0,0,2.827,9.376,6.764,13.373,0,0-6.251-5.475-8.207-12.859,0,0-2.648,4.616-1.98,9.149,0,0-3.9-4.318,1.324-11.428,0,0-1.908-7.4-1.432-8.565,0,0-6.143,6.286-7.718,11.929,0,0-1.193-7.062,7.706-13.969V29.667S3.477,37.552,1.712,42.431c0,0-.119-7.4,10.51-14.756l1.192-7.718S5.517,26.184,2.38,31.194c0,0,1.36-6.9,11.452-13.432l1.4-5.058S9.55,17.357,8.07,18.836s-2.04,1.193-2.04,1.193a25.05,25.05,0,0,1,9.782-9.472S19.462.274,18.806,0Z" transform="translate(1674.398 337.217) rotate(40)"/>
    <path id="Caminho_399" data-name="Caminho 399" class="cls-1" d="M18.806,0s-39.544,42.36-3.949,62.937c0,0,4.652,5.607,11.3,2.672,0,0-2.243-1.992,2.255-5.833a26.682,26.682,0,0,0,4.234-4.653A13.119,13.119,0,0,0,35.1,47.179h0S40.278,30.371,23.828,8.553c0,0-1.491-7.3-2.756-8.1L18.067,10.629s7.551,1.92,10.39,7.67c0,0-9.949-7.813-10.915-6.179-.191.334-1.348,5.476-1.348,5.476S29.316,20.983,33.419,30c0,0-10.6-10.891-17.679-10.462l-1.288,7.849s14.04,2.911,19.086,13c0,0-11.475-11.011-19.277-11.261l-.227,7.885s13.635,3.1,17.8,11.523c0,0-14.541-11.368-17.726-9.71,0,0,.227,7.265,1.193,9.161,0,0,9.734,2.386,11.714,7.563,0,0-10.522-6.573-11.428-5.571,0,0,2.827,9.376,6.764,13.373,0,0-6.251-5.475-8.207-12.859,0,0-2.648,4.616-1.98,9.149,0,0-3.9-4.318,1.324-11.428,0,0-1.908-7.4-1.432-8.565,0,0-6.143,6.286-7.718,11.929,0,0-1.193-7.062,7.706-13.969V29.667S3.477,37.552,1.712,42.431c0,0-.119-7.4,10.51-14.756l1.192-7.718S5.517,26.184,2.38,31.194c0,0,1.36-6.9,11.452-13.432l1.4-5.058S9.55,17.357,8.07,18.836s-2.04,1.193-2.04,1.193a25.05,25.05,0,0,1,9.782-9.472S19.462.274,18.806,0Z" transform="translate(1193.284 434.984) rotate(106)"/>
    <path id="Caminho_396" data-name="Caminho 396" class="cls-20" d="M18.806,0s-39.544,42.36-3.949,62.937c0,0,4.652,5.607,11.3,2.672,0,0-2.243-1.992,2.255-5.833a26.682,26.682,0,0,0,4.234-4.653A13.119,13.119,0,0,0,35.1,47.179h0S40.278,30.371,23.828,8.553c0,0-1.491-7.3-2.756-8.1L18.067,10.629s7.551,1.92,10.39,7.67c0,0-9.949-7.813-10.915-6.179-.191.334-1.348,5.476-1.348,5.476S29.316,20.983,33.419,30c0,0-10.6-10.891-17.679-10.462l-1.288,7.849s14.04,2.911,19.086,13c0,0-11.475-11.011-19.277-11.261l-.227,7.885s13.635,3.1,17.8,11.523c0,0-14.541-11.368-17.726-9.71,0,0,.227,7.265,1.193,9.161,0,0,9.734,2.386,11.714,7.563,0,0-10.522-6.573-11.428-5.571,0,0,2.827,9.376,6.764,13.373,0,0-6.251-5.475-8.207-12.859,0,0-2.648,4.616-1.98,9.149,0,0-3.9-4.318,1.324-11.428,0,0-1.908-7.4-1.432-8.565,0,0-6.143,6.286-7.718,11.929,0,0-1.193-7.062,7.706-13.969V29.667S3.477,37.552,1.712,42.431c0,0-.119-7.4,10.51-14.756l1.192-7.718S5.517,26.184,2.38,31.194c0,0,1.36-6.9,11.452-13.432l1.4-5.058S9.55,17.357,8.07,18.836s-2.04,1.193-2.04,1.193a25.05,25.05,0,0,1,9.782-9.472S19.462.274,18.806,0Z" transform="translate(1674.398 337.217) rotate(40)"/>
    <path id="Caminho_400" data-name="Caminho 400" class="cls-20" d="M18.806,0s-39.544,42.36-3.949,62.937c0,0,4.652,5.607,11.3,2.672,0,0-2.243-1.992,2.255-5.833a26.682,26.682,0,0,0,4.234-4.653A13.119,13.119,0,0,0,35.1,47.179h0S40.278,30.371,23.828,8.553c0,0-1.491-7.3-2.756-8.1L18.067,10.629s7.551,1.92,10.39,7.67c0,0-9.949-7.813-10.915-6.179-.191.334-1.348,5.476-1.348,5.476S29.316,20.983,33.419,30c0,0-10.6-10.891-17.679-10.462l-1.288,7.849s14.04,2.911,19.086,13c0,0-11.475-11.011-19.277-11.261l-.227,7.885s13.635,3.1,17.8,11.523c0,0-14.541-11.368-17.726-9.71,0,0,.227,7.265,1.193,9.161,0,0,9.734,2.386,11.714,7.563,0,0-10.522-6.573-11.428-5.571,0,0,2.827,9.376,6.764,13.373,0,0-6.251-5.475-8.207-12.859,0,0-2.648,4.616-1.98,9.149,0,0-3.9-4.318,1.324-11.428,0,0-1.908-7.4-1.432-8.565,0,0-6.143,6.286-7.718,11.929,0,0-1.193-7.062,7.706-13.969V29.667S3.477,37.552,1.712,42.431c0,0-.119-7.4,10.51-14.756l1.192-7.718S5.517,26.184,2.38,31.194c0,0,1.36-6.9,11.452-13.432l1.4-5.058S9.55,17.357,8.07,18.836s-2.04,1.193-2.04,1.193a25.05,25.05,0,0,1,9.782-9.472S19.462.274,18.806,0Z" transform="translate(1193.284 434.984) rotate(106)"/>
    <path id="Caminho_359" data-name="Caminho 359" class="cls-1" d="M18.806,0s-39.544,42.36-3.949,62.937c0,0,4.652,5.607,11.3,2.672,0,0-2.243-1.992,2.255-5.833a26.682,26.682,0,0,0,4.234-4.653A13.119,13.119,0,0,0,35.1,47.179h0S40.278,30.371,23.828,8.553c0,0-1.491-7.3-2.756-8.1L18.067,10.629s7.551,1.92,10.39,7.67c0,0-9.949-7.813-10.915-6.179-.191.334-1.348,5.476-1.348,5.476S29.316,20.983,33.419,30c0,0-10.6-10.891-17.679-10.462l-1.288,7.849s14.04,2.911,19.086,13c0,0-11.475-11.011-19.277-11.261l-.227,7.885s13.635,3.1,17.8,11.523c0,0-14.541-11.368-17.726-9.71,0,0,.227,7.265,1.193,9.161,0,0,9.734,2.386,11.714,7.563,0,0-10.522-6.573-11.428-5.571,0,0,2.827,9.376,6.764,13.373,0,0-6.251-5.475-8.207-12.859,0,0-2.648,4.616-1.98,9.149,0,0-3.9-4.318,1.324-11.428,0,0-1.908-7.4-1.432-8.565,0,0-6.143,6.286-7.718,11.929,0,0-1.193-7.062,7.706-13.969V29.667S3.477,37.552,1.712,42.431c0,0-.119-7.4,10.51-14.756l1.192-7.718S5.517,26.184,2.38,31.194c0,0,1.36-6.9,11.452-13.432l1.4-5.058S9.55,17.357,8.07,18.836s-2.04,1.193-2.04,1.193a25.05,25.05,0,0,1,9.782-9.472S19.462.274,18.806,0Z" transform="matrix(0.53, 0.848, -0.848, 0.53, 1535.479, 237.472)"/>
    <path id="Caminho_360" data-name="Caminho 360" class="cls-21" d="M981.491,668.71s-39.544,42.36-3.948,62.937c0,0,4.652,5.607,11.3,2.672,0,0-2.243-1.992,2.255-5.833a26.678,26.678,0,0,0,4.234-4.652,13.12,13.12,0,0,0,2.458-7.945h0s5.177-16.808-11.273-38.626c0,0-1.491-7.3-2.756-8.1l-3.006,10.176s7.551,1.92,10.39,7.67c0,0-9.949-7.813-10.915-6.179-.191.334-1.348,5.476-1.348,5.476S992,689.693,996.1,698.711c0,0-10.6-10.891-17.679-10.462l-1.288,7.849s14.041,2.911,19.086,13c0,0-11.475-11.011-19.277-11.261l-.227,7.885s13.635,3.1,17.8,11.523c0,0-14.541-11.368-17.726-9.71,0,0,.227,7.265,1.193,9.161,0,0,9.734,2.386,11.714,7.563,0,0-10.522-6.573-11.428-5.571,0,0,2.827,9.376,6.764,13.373,0,0-6.251-5.475-8.207-12.859,0,0-2.648,4.616-1.98,9.149,0,0-3.9-4.318,1.324-11.428,0,0-1.908-7.4-1.432-8.565,0,0-6.143,6.287-7.718,11.929,0,0-1.193-7.062,7.706-13.969v-7.945s-8.565,7.885-10.33,12.764c0,0-.119-7.4,10.51-14.756l1.193-7.718s-7.9,6.227-11.034,11.237c0,0,1.36-6.9,11.452-13.432l1.4-5.058s-5.678,4.652-7.158,6.132-2.04,1.193-2.04,1.193a25.05,25.05,0,0,1,9.782-9.472S982.147,668.984,981.491,668.71Z" transform="translate(464.445 -423.093)"/>
    <path id="Caminho_361" data-name="Caminho 361" class="cls-1" d="M18.806,0s-39.544,42.36-3.949,62.937c0,0,4.652,5.607,11.3,2.672,0,0-2.243-1.992,2.255-5.833a26.682,26.682,0,0,0,4.234-4.653A13.119,13.119,0,0,0,35.1,47.179h0S40.278,30.371,23.828,8.553c0,0-1.491-7.3-2.756-8.1L18.067,10.629s7.551,1.92,10.39,7.67c0,0-9.949-7.813-10.915-6.179-.191.334-1.348,5.476-1.348,5.476S29.316,20.983,33.419,30c0,0-10.6-10.891-17.679-10.462l-1.288,7.849s14.04,2.911,19.086,13c0,0-11.475-11.011-19.277-11.261l-.227,7.885s13.635,3.1,17.8,11.523c0,0-14.541-11.368-17.726-9.71,0,0,.227,7.265,1.193,9.161,0,0,9.734,2.386,11.714,7.563,0,0-10.522-6.573-11.428-5.571,0,0,2.827,9.376,6.764,13.373,0,0-6.251-5.475-8.207-12.859,0,0-2.648,4.616-1.98,9.149,0,0-3.9-4.318,1.324-11.428,0,0-1.908-7.4-1.432-8.565,0,0-6.143,6.286-7.718,11.929,0,0-1.193-7.062,7.706-13.969V29.667S3.477,37.552,1.712,42.431c0,0-.119-7.4,10.51-14.756l1.192-7.718S5.517,26.184,2.38,31.194c0,0,1.36-6.9,11.452-13.432l1.4-5.058S9.55,17.357,8.07,18.836s-2.04,1.193-2.04,1.193a25.05,25.05,0,0,1,9.782-9.472S19.462.274,18.806,0Z" transform="translate(1622.87 537.908) rotate(102)"/>
    <path id="Caminho_362" data-name="Caminho 362" class="cls-1" d="M18.806,0s-39.544,42.36-3.949,62.937c0,0,4.652,5.607,11.3,2.672,0,0-2.243-1.992,2.255-5.833a26.682,26.682,0,0,0,4.234-4.653A13.119,13.119,0,0,0,35.1,47.179h0S40.278,30.371,23.828,8.553c0,0-1.491-7.3-2.756-8.1L18.067,10.629s7.551,1.92,10.39,7.67c0,0-9.949-7.813-10.915-6.179-.191.334-1.348,5.476-1.348,5.476S29.316,20.983,33.419,30c0,0-10.6-10.891-17.679-10.462l-1.288,7.849s14.04,2.911,19.086,13c0,0-11.475-11.011-19.277-11.261l-.227,7.885s13.635,3.1,17.8,11.523c0,0-14.541-11.368-17.726-9.71,0,0,.227,7.265,1.193,9.161,0,0,9.734,2.386,11.714,7.563,0,0-10.522-6.573-11.428-5.571,0,0,2.827,9.376,6.764,13.373,0,0-6.251-5.475-8.207-12.859,0,0-2.648,4.616-1.98,9.149,0,0-3.9-4.318,1.324-11.428,0,0-1.908-7.4-1.432-8.565,0,0-6.143,6.286-7.718,11.929,0,0-1.193-7.062,7.706-13.969V29.667S3.477,37.552,1.712,42.431c0,0-.119-7.4,10.51-14.756l1.192-7.718S5.517,26.184,2.38,31.194c0,0,1.36-6.9,11.452-13.432l1.4-5.058S9.55,17.357,8.07,18.836s-2.04,1.193-2.04,1.193a25.05,25.05,0,0,1,9.782-9.472S19.462.274,18.806,0Z" transform="matrix(0.819, -0.574, 0.574, 0.819, 1157.745, 195.456)"/>
    <path id="Caminho_347" data-name="Caminho 347" class="cls-1" d="M905.275,855.464s39.962-41.978,4.569-62.9c0,0-4.6-5.654-11.273-2.791,0,0,2.231,2.016-2.3,5.821a26.929,26.929,0,0,0-4.282,4.6,13.038,13.038,0,0,0-2.529,7.921h0s-5.356,16.76,10.891,38.733c0,0,1.42,7.312,2.672,8.135l3.113-10.152s-7.539-1.992-10.319-7.766c0,0,9.865,7.9,10.844,6.275.2-.334,1.408-5.452,1.408-5.452s-13.122-3.579-17.106-12.573c0,0,10.5,11,17.583,10.629l1.36-7.837s-14-3.042-18.979-13.122c0,0,11.368,11.118,19.17,11.452l.3-7.9s-13.611-3.292-17.738-11.762c0,0,14.434,11.523,17.631,9.889,0,0-.155-7.253-1.193-9.161,0,0-9.71-2.553-11.643-7.682,0,0,10.462,6.68,11.368,5.678,0,0-2.732-9.4-6.632-13.432,0,0,6.2,5.535,8.088,12.931,0,0,2.7-4.593,2.064-9.126,0,0,3.865,4.366-1.432,11.416,0,0,1.837,7.42,1.348,8.577,0,0,6.2-6.227,7.826-11.8,0,0,1.193,7.074-7.838,13.885l-.119,7.945s8.637-7.8,10.45-12.669c0,0,0,7.408-10.652,14.66l-1.193,7.706s7.957-6.155,11.142-11.13c0,0-1.431,6.871-11.583,13.313l-1.444,5.046s5.726-4.593,7.253-6.06,2.052-1.193,2.052-1.193a24.97,24.97,0,0,1-9.877,9.376S904.678,855.177,905.275,855.464Z" transform="translate(30.451 21.13)"/>
    <path id="Caminho_349" data-name="Caminho 349" class="cls-1" d="M827.744,735.764S771.893,720.256,770.1,761.34c0,0-2.815,6.728,2.851,11.261,0,0,.728-2.911,6.215-.7a26.728,26.728,0,0,0,6.084,1.61,13.038,13.038,0,0,0,8.183-1.5h0s17.3-3.173,29.035-27.842c0,0,5.786-4.688,5.965-6.191l-10.414,2.04s1.789,7.587-2,12.764c0,0,2.386-12.43.441-12.525-.394,0-5.476,1.324-5.476,1.324s3.054,13.193-3.042,21.007c0,0,4.771-14.434,1.109-20.518l-7.563,2.493s3.913,13.79-2.7,22.951c0,0,4.461-15.257,1.074-22.3l-7.086,3.448s3.579,13.527-1.992,21.114c0,0,3.364-18.156.417-20.22,0,0-6.322,3.579-7.551,5.32,0,0,2.386,9.77-1.288,13.885,0,0,.954-12.37-.346-12.7,0,0-7.014,6.835-8.732,12.18,0,0,1.968-8.076,7.611-13.217,0,0-5.32-.215-9.03,2.469,0,0,2.028-5.452,10.736-4.1,0,0,5.678-5.118,6.931-5.225,0,0-8.35-2.553-14.1-1.36,0,0,5.7-4.342,15.949.382l7.062-3.579s-10.951-3.948-16.092-3.269c0,0,6.5-3.579,17.893,2.493l7.372-2.517s-9.161-4.115-15.054-4.593c0,0,6.74-1.968,17.2,3.96l5.129-1.109s-6.752-2.887-8.768-3.579-2-1.193-2-1.193a25.052,25.052,0,0,1,12.919,4.294S827.78,736.42,827.744,735.764Z" transform="translate(14.789 10.315)"/>
  </g>
</svg>
